<svg width="49" height="54" viewBox="0 0 49 54" fill="none" xmlns="http://www.w3.org/2000/svg">
<path d="M25.8333 28C25.8333 27.2636 25.2364 26.6667 24.5 26.6667C23.7636 26.6667 23.1666 27.2636 23.1666 28V29.3333C23.1666 30.0697 23.7636 30.6667 24.5 30.6667C25.2364 30.6667 25.8333 30.0697 25.8333 29.3333V28Z" fill="#0062E1"/>
<path fill-rule="evenodd" clip-rule="evenodd" d="M19.7017 12.4484C20.8904 11.3023 22.4925 10.6667 24.1533 10.6667H24.8466C26.5074 10.6667 28.1096 11.3023 29.2982 12.4484C30.4885 13.5961 31.1666 15.1633 31.1666 16.8081V20H33.8333C34.5697 20 35.1666 20.597 35.1666 21.3333V30.6667C35.1666 34.3486 32.1819 37.3333 28.5 37.3333H20.5C16.8181 37.3333 13.8333 34.3486 13.8333 30.6667V21.3333C13.8333 20.597 14.4303 20 15.1666 20H17.8333V16.8081C17.8333 15.1633 18.5114 13.5961 19.7017 12.4484ZM27.4473 14.3681C28.1273 15.0238 28.5 15.9025 28.5 16.8081V20H20.5V16.8081C20.5 15.9025 20.8726 15.0238 21.5527 14.3681C22.2344 13.7108 23.169 13.3333 24.1533 13.3333H24.8466C25.8309 13.3333 26.7656 13.7108 27.4473 14.3681ZM20.5 34.6667C18.2908 34.6667 16.5 32.8758 16.5 30.6667V22.6667H32.5V30.6667C32.5 32.8758 30.7091 34.6667 28.5 34.6667H20.5Z" fill="#0062E1"/>
<path fill-rule="evenodd" clip-rule="evenodd" d="M45.8077 1.94198C31.7205 -0.647327 17.2794 -0.647327 3.19228 1.94198C2.60753 2.04946 2.1646 2.53111 2.10639 3.12279L0.640349 18.0231C-0.190818 25.7174 1.70318 33.4596 5.99263 39.9014C10.2833 46.345 16.6987 51.079 24.1212 53.2784C24.3684 53.3517 24.6316 53.3517 24.8788 53.2784C32.3012 51.079 38.7167 46.345 43.0073 39.9014C47.2968 33.4596 49.1908 25.7174 48.3596 18.023L48.3589 18.0166L46.8936 3.12279C46.8354 2.53111 46.3924 2.04946 45.8077 1.94198ZM3.29357 18.2906L4.66148 4.38771C17.7876 2.09299 31.2124 2.09299 44.3385 4.38771L45.7063 18.2906L45.7077 18.3035C46.4735 25.3793 44.7324 32.4995 40.7877 38.4234C36.9163 44.2375 31.1632 48.5375 24.5 50.6067C17.8368 48.5375 12.0837 44.2375 8.21223 38.4234C4.2676 32.4995 2.52647 25.3793 3.29224 18.3035L3.29357 18.2906Z" fill="#0062E1"/>
</svg>
